<svg xmlns="http://www.w3.org/2000/svg" viewBox="0 0 100 100">
  <rect width="100" height="100" fill="#78350f"/>
  
  <!-- Open Book -->
  <path d="M 25 60 L 25 40 Q 25 35 30 35 L 45 35 Q 50 35 50 40 L 50 60 Q 50 65 45 65 L 30 65 Q 25 65 25 60 Z" 
        fill="none" stroke="#f59e0b" stroke-width="3" stroke-linejoin="round"/>
  <path d="M 50 60 L 50 40 Q 50 35 55 35 L 70 35 Q 75 35 75 40 L 75 60 Q 75 65 70 65 L 55 65 Q 50 65 50 60 Z" 
        fill="none" stroke="#f59e0b" stroke-width="3" stroke-linejoin="round"/>
  <line x1="50" y1="35" x2="50" y2="65" stroke="#f59e0b" stroke-width="2"/>
  
  <!-- Light Bulb -->
  <circle cx="50" cy="22" r="10" fill="none" stroke="#fbbf24" stroke-width="2.5"/>
  <path d="M 47 32 L 47 35 L 53 35 L 53 32" fill="#fbbf24"/>
  <line x1="50" y1="28" x2="50" y2="32" stroke="#fbbf24" stroke-width="1.5"/>
  
  <!-- Light rays -->
  <line x1="50" y1="8" x2="50" y2="12" stroke="#fbbf24" stroke-width="2" stroke-linecap="round"/>
  <line x1="35" y1="13" x2="38" y2="16" stroke="#fbbf24" stroke-width="2" stroke-linecap="round"/>
  <line x1="65" y1="13" x2="62" y2="16" stroke="#fbbf24" stroke-width="2" stroke-linecap="round"/>
  <line x1="28" y1="22" x2="32" y2="22" stroke="#fbbf24" stroke-width="2" stroke-linecap="round"/>
  <line x1="72" y1="22" x2="68" y2="22" stroke="#fbbf24" stroke-width="2" stroke-linecap="round"/>
</svg>
